<mxfile host="app.diagrams.net" modified="2022-01-15T08:01:56.173Z" agent="5.0 (Macintosh; Intel Mac OS X 10_15_7) AppleWebKit/537.36 (KHTML, like Gecko) Chrome/97.0.4692.71 Safari/537.36" etag="d_aNnWFcKKTTFrSTvrgt" version="16.2.7" type="github">
  <diagram id="OMbUdAz9irHpYTL_801J" name="Page-1">
    <mxGraphModel dx="1720" dy="1175" grid="1" gridSize="10" guides="1" tooltips="1" connect="1" arrows="1" fold="1" page="1" pageScale="1" pageWidth="850" pageHeight="1100" math="0" shadow="0">
      <root>
        <mxCell id="0" />
        <mxCell id="1" parent="0" />
        <mxCell id="-gZxKVkSei5OvGP2EspD-1" value="" style="rounded=0;whiteSpace=wrap;html=1;labelBackgroundColor=#F8F9FA;fontSize=24;" vertex="1" parent="1">
          <mxGeometry width="850" height="1100" as="geometry" />
        </mxCell>
        <mxCell id="-gZxKVkSei5OvGP2EspD-2" value="&lt;span style=&quot;text-align: center&quot;&gt;System&lt;/span&gt;" style="rounded=0;whiteSpace=wrap;html=1;fontSize=24;fillColor=#fff2cc;strokeColor=#d6b656;align=right;verticalAlign=top;" vertex="1" parent="1">
          <mxGeometry x="190" y="150" width="300" height="800" as="geometry" />
        </mxCell>
        <mxCell id="-gZxKVkSei5OvGP2EspD-3" value="&lt;b&gt;Connect&lt;/b&gt;" style="ellipse;whiteSpace=wrap;html=1;fontSize=24;fillColor=#ffe6cc;strokeColor=#d79b00;" vertex="1" parent="1">
          <mxGeometry x="242" y="190" width="195" height="90" as="geometry" />
        </mxCell>
        <mxCell id="-gZxKVkSei5OvGP2EspD-4" value="&lt;b&gt;Disconnect&lt;/b&gt;" style="ellipse;whiteSpace=wrap;html=1;fontSize=24;fillColor=#ffe6cc;strokeColor=#d79b00;" vertex="1" parent="1">
          <mxGeometry x="242.5" y="820" width="195" height="90" as="geometry" />
        </mxCell>
        <mxCell id="-gZxKVkSei5OvGP2EspD-5" value="&lt;b&gt;Create New Order&lt;/b&gt;" style="ellipse;whiteSpace=wrap;html=1;fontSize=24;fillColor=#ffe6cc;strokeColor=#d79b00;" vertex="1" parent="1">
          <mxGeometry x="242" y="320" width="195" height="90" as="geometry" />
        </mxCell>
        <mxCell id="-gZxKVkSei5OvGP2EspD-6" value="&lt;b&gt;&lt;font style=&quot;font-size: 24px&quot;&gt;User&lt;/font&gt;&lt;/b&gt;" style="shape=umlActor;verticalLabelPosition=bottom;verticalAlign=top;html=1;outlineConnect=0;" vertex="1" parent="1">
          <mxGeometry x="20" y="490" width="90" height="170" as="geometry" />
        </mxCell>
        <mxCell id="-gZxKVkSei5OvGP2EspD-7" value="&lt;b&gt;Get Recharge Details&lt;/b&gt;" style="ellipse;whiteSpace=wrap;html=1;fontSize=24;fillColor=#ffe6cc;strokeColor=#d79b00;" vertex="1" parent="1">
          <mxGeometry x="242.5" y="440" width="195" height="90" as="geometry" />
        </mxCell>
        <mxCell id="-gZxKVkSei5OvGP2EspD-8" value="" style="endArrow=classic;html=1;rounded=0;fontSize=24;entryX=0;entryY=0.5;entryDx=0;entryDy=0;exitX=1;exitY=0.3333333333333333;exitDx=0;exitDy=0;exitPerimeter=0;" edge="1" parent="1" source="-gZxKVkSei5OvGP2EspD-6" target="-gZxKVkSei5OvGP2EspD-3">
          <mxGeometry width="50" height="50" relative="1" as="geometry">
            <mxPoint x="190" y="390" as="sourcePoint" />
            <mxPoint x="440" y="430" as="targetPoint" />
          </mxGeometry>
        </mxCell>
        <mxCell id="-gZxKVkSei5OvGP2EspD-9" value="" style="endArrow=classic;html=1;rounded=0;fontSize=24;entryX=0.011;entryY=0.626;entryDx=0;entryDy=0;entryPerimeter=0;exitX=1;exitY=0.3333333333333333;exitDx=0;exitDy=0;exitPerimeter=0;" edge="1" parent="1" source="-gZxKVkSei5OvGP2EspD-6" target="-gZxKVkSei5OvGP2EspD-5">
          <mxGeometry width="50" height="50" relative="1" as="geometry">
            <mxPoint x="200" y="490" as="sourcePoint" />
            <mxPoint x="440" y="430" as="targetPoint" />
          </mxGeometry>
        </mxCell>
        <mxCell id="-gZxKVkSei5OvGP2EspD-10" value="" style="endArrow=classic;html=1;rounded=0;fontSize=24;exitX=1;exitY=0.3333333333333333;exitDx=0;exitDy=0;exitPerimeter=0;entryX=0;entryY=0.5;entryDx=0;entryDy=0;" edge="1" parent="1" source="-gZxKVkSei5OvGP2EspD-6" target="-gZxKVkSei5OvGP2EspD-7">
          <mxGeometry width="50" height="50" relative="1" as="geometry">
            <mxPoint x="390" y="480" as="sourcePoint" />
            <mxPoint x="440" y="430" as="targetPoint" />
          </mxGeometry>
        </mxCell>
        <mxCell id="-gZxKVkSei5OvGP2EspD-11" value="" style="endArrow=classic;html=1;rounded=0;fontSize=24;exitX=1;exitY=0.3333333333333333;exitDx=0;exitDy=0;exitPerimeter=0;entryX=0;entryY=0.5;entryDx=0;entryDy=0;" edge="1" parent="1" source="-gZxKVkSei5OvGP2EspD-6" target="-gZxKVkSei5OvGP2EspD-4">
          <mxGeometry width="50" height="50" relative="1" as="geometry">
            <mxPoint x="170" y="540" as="sourcePoint" />
            <mxPoint x="440" y="430" as="targetPoint" />
          </mxGeometry>
        </mxCell>
        <mxCell id="-gZxKVkSei5OvGP2EspD-12" value="&lt;b&gt;Payment&lt;/b&gt;" style="ellipse;whiteSpace=wrap;html=1;fontSize=24;fillColor=#ffe6cc;strokeColor=#d79b00;" vertex="1" parent="1">
          <mxGeometry x="242.5" y="560" width="195" height="90" as="geometry" />
        </mxCell>
        <mxCell id="-gZxKVkSei5OvGP2EspD-13" value="" style="endArrow=classic;html=1;rounded=0;fontSize=24;exitX=1;exitY=0.3333333333333333;exitDx=0;exitDy=0;exitPerimeter=0;entryX=0;entryY=0.5;entryDx=0;entryDy=0;" edge="1" parent="1" source="-gZxKVkSei5OvGP2EspD-6" target="-gZxKVkSei5OvGP2EspD-12">
          <mxGeometry width="50" height="50" relative="1" as="geometry">
            <mxPoint x="390" y="560" as="sourcePoint" />
            <mxPoint x="440" y="510" as="targetPoint" />
          </mxGeometry>
        </mxCell>
        <mxCell id="-gZxKVkSei5OvGP2EspD-14" value="Blockchain" style="rounded=0;whiteSpace=wrap;html=1;fontSize=24;fillColor=#fff2cc;strokeColor=#d6b656;align=right;verticalAlign=top;" vertex="1" parent="1">
          <mxGeometry x="520" y="150" width="300" height="580" as="geometry" />
        </mxCell>
        <mxCell id="-gZxKVkSei5OvGP2EspD-15" style="edgeStyle=orthogonalEdgeStyle;rounded=0;orthogonalLoop=1;jettySize=auto;html=1;exitX=0.5;exitY=1;exitDx=0;exitDy=0;entryX=0.5;entryY=0;entryDx=0;entryDy=0;fontSize=24;" edge="1" parent="1" source="-gZxKVkSei5OvGP2EspD-16" target="-gZxKVkSei5OvGP2EspD-19">
          <mxGeometry relative="1" as="geometry" />
        </mxCell>
        <mxCell id="-gZxKVkSei5OvGP2EspD-16" value="&lt;b&gt;Pay GAS&amp;nbsp;Fees&lt;/b&gt;" style="ellipse;whiteSpace=wrap;html=1;fontSize=24;fillColor=#ffe6cc;strokeColor=#d79b00;" vertex="1" parent="1">
          <mxGeometry x="572.5" y="210" width="195" height="90" as="geometry" />
        </mxCell>
        <mxCell id="-gZxKVkSei5OvGP2EspD-17" value="" style="endArrow=classic;html=1;rounded=0;fontSize=24;entryX=0;entryY=0.5;entryDx=0;entryDy=0;exitX=1;exitY=0;exitDx=0;exitDy=0;" edge="1" parent="1" source="-gZxKVkSei5OvGP2EspD-12" target="-gZxKVkSei5OvGP2EspD-16">
          <mxGeometry width="50" height="50" relative="1" as="geometry">
            <mxPoint x="390" y="530" as="sourcePoint" />
            <mxPoint x="440" y="480" as="targetPoint" />
          </mxGeometry>
        </mxCell>
        <mxCell id="-gZxKVkSei5OvGP2EspD-18" style="edgeStyle=orthogonalEdgeStyle;rounded=0;orthogonalLoop=1;jettySize=auto;html=1;exitX=0.5;exitY=1;exitDx=0;exitDy=0;entryX=0.5;entryY=0;entryDx=0;entryDy=0;fontSize=24;" edge="1" parent="1" source="-gZxKVkSei5OvGP2EspD-19" target="-gZxKVkSei5OvGP2EspD-24">
          <mxGeometry relative="1" as="geometry" />
        </mxCell>
        <mxCell id="-gZxKVkSei5OvGP2EspD-19" value="&lt;b&gt;Processing&lt;/b&gt;" style="ellipse;whiteSpace=wrap;html=1;fontSize=24;fillColor=#ffe6cc;strokeColor=#d79b00;" vertex="1" parent="1">
          <mxGeometry x="572.5" y="340" width="195" height="90" as="geometry" />
        </mxCell>
        <mxCell id="-gZxKVkSei5OvGP2EspD-20" value="&lt;b&gt;Transaction&lt;/b&gt;" style="ellipse;whiteSpace=wrap;html=1;fontSize=24;fillColor=#ffe6cc;strokeColor=#d79b00;" vertex="1" parent="1">
          <mxGeometry x="572.5" y="600" width="195" height="90" as="geometry" />
        </mxCell>
        <mxCell id="-gZxKVkSei5OvGP2EspD-21" value="&lt;b&gt;Payment status&lt;/b&gt;" style="ellipse;whiteSpace=wrap;html=1;fontSize=24;fillColor=#ffe6cc;strokeColor=#d79b00;" vertex="1" parent="1">
          <mxGeometry x="242.5" y="690" width="195" height="90" as="geometry" />
        </mxCell>
        <mxCell id="-gZxKVkSei5OvGP2EspD-22" value="" style="endArrow=classic;html=1;rounded=0;fontSize=24;entryX=1;entryY=0;entryDx=0;entryDy=0;exitX=0;exitY=0.5;exitDx=0;exitDy=0;" edge="1" parent="1" source="-gZxKVkSei5OvGP2EspD-20" target="-gZxKVkSei5OvGP2EspD-21">
          <mxGeometry width="50" height="50" relative="1" as="geometry">
            <mxPoint x="390" y="560" as="sourcePoint" />
            <mxPoint x="440" y="510" as="targetPoint" />
          </mxGeometry>
        </mxCell>
        <mxCell id="-gZxKVkSei5OvGP2EspD-23" style="edgeStyle=orthogonalEdgeStyle;rounded=0;orthogonalLoop=1;jettySize=auto;html=1;exitX=0.5;exitY=1;exitDx=0;exitDy=0;fontSize=24;" edge="1" parent="1" source="-gZxKVkSei5OvGP2EspD-24" target="-gZxKVkSei5OvGP2EspD-20">
          <mxGeometry relative="1" as="geometry" />
        </mxCell>
        <mxCell id="-gZxKVkSei5OvGP2EspD-24" value="&lt;b&gt;Confirmed&lt;/b&gt;" style="ellipse;whiteSpace=wrap;html=1;fontSize=24;fillColor=#ffe6cc;strokeColor=#d79b00;" vertex="1" parent="1">
          <mxGeometry x="572.5" y="470" width="195" height="90" as="geometry" />
        </mxCell>
        <mxCell id="-gZxKVkSei5OvGP2EspD-25" value="&lt;span style=&quot;font-size: 24px&quot;&gt;&lt;b&gt;Anyone&lt;/b&gt;&lt;/span&gt;" style="shape=umlActor;verticalLabelPosition=bottom;verticalAlign=top;html=1;outlineConnect=0;" vertex="1" parent="1">
          <mxGeometry x="627.5" y="740" width="85" height="140" as="geometry" />
        </mxCell>
        <mxCell id="-gZxKVkSei5OvGP2EspD-26" value="" style="endArrow=classic;html=1;rounded=0;fontSize=24;exitX=0.5;exitY=0;exitDx=0;exitDy=0;exitPerimeter=0;" edge="1" parent="1" source="-gZxKVkSei5OvGP2EspD-25" target="-gZxKVkSei5OvGP2EspD-20">
          <mxGeometry width="50" height="50" relative="1" as="geometry">
            <mxPoint x="210" y="600" as="sourcePoint" />
            <mxPoint x="260" y="550" as="targetPoint" />
          </mxGeometry>
        </mxCell>
      </root>
    </mxGraphModel>
  </diagram>
</mxfile>
